<svg width="56" height="57" viewBox="0 0 56 57" fill="none" xmlns="http://www.w3.org/2000/svg">
<g clip-path="url(#clip0_36_374)">
<g filter="url(#filter0_d_36_374)">
<path d="M28.6668 5.16666C23.92 5.16666 19.2799 6.57423 15.3331 9.21138C11.3863 11.8485 8.31015 15.5968 6.49365 19.9822C4.67715 24.3677 4.20187 29.1933 5.12791 33.8488C6.05396 38.5044 8.33974 42.7808 11.6962 46.1372C15.0527 49.4937 19.329 51.7794 23.9846 52.7055C28.6401 53.6315 33.4657 53.1563 37.8512 51.3398C42.2366 49.5233 45.9849 46.4471 48.622 42.5003C51.2592 38.5536 52.6667 33.9134 52.6667 29.1667C52.6667 26.0149 52.046 22.8941 50.8399 19.9822C49.6337 17.0704 47.8659 14.4247 45.6373 12.1961C43.4087 9.96749 40.763 8.19966 37.8512 6.99355C34.9393 5.78743 31.8185 5.16666 28.6668 5.16666ZM38.2668 31.5667H31.0668V38.7666C31.0668 39.4032 30.8139 40.0136 30.3638 40.4637C29.9137 40.9138 29.3033 41.1666 28.6668 41.1666C28.0302 41.1666 27.4198 40.9138 26.9697 40.4637C26.5196 40.0136 26.2668 39.4032 26.2668 38.7666V31.5667H19.0668C18.4302 31.5667 17.8198 31.3138 17.3697 30.8637C16.9196 30.4136 16.6668 29.8032 16.6668 29.1667C16.6668 28.5301 16.9196 27.9197 17.3697 27.4696C17.8198 27.0195 18.4302 26.7667 19.0668 26.7667H26.2668V19.5667C26.2668 18.9301 26.5196 18.3197 26.9697 17.8696C27.4198 17.4195 28.0302 17.1667 28.6668 17.1667C29.3033 17.1667 29.9137 17.4195 30.3638 17.8696C30.8139 18.3197 31.0668 18.9301 31.0668 19.5667V26.7667H38.2668C38.9033 26.7667 39.5137 27.0195 39.9638 27.4696C40.4139 27.9197 40.6668 28.5301 40.6668 29.1667C40.6668 29.8032 40.4139 30.4136 39.9638 30.8637C39.5137 31.3138 38.9033 31.5667 38.2668 31.5667Z" fill="#4942E4"/>
</g>
</g>
<defs>
<filter id="filter0_d_36_374" x="-15.3333" y="-10.8333" width="88" height="88" filterUnits="userSpaceOnUse" color-interpolation-filters="sRGB">
<feFlood flood-opacity="0" result="BackgroundImageFix"/>
<feColorMatrix in="SourceAlpha" type="matrix" values="0 0 0 0 0 0 0 0 0 0 0 0 0 0 0 0 0 0 127 0" result="hardAlpha"/>
<feOffset dy="4"/>
<feGaussianBlur stdDeviation="10"/>
<feComposite in2="hardAlpha" operator="out"/>
<feColorMatrix type="matrix" values="0 0 0 0 0 0 0 0 0 0 0 0 0 0 0 0 0 0 0.05 0"/>
<feBlend mode="normal" in2="BackgroundImageFix" result="effect1_dropShadow_36_374"/>
<feBlend mode="normal" in="SourceGraphic" in2="effect1_dropShadow_36_374" result="shape"/>
</filter>
<clipPath id="clip0_36_374">
<rect width="56" height="56" fill="white" transform="translate(0 0.5)"/>
</clipPath>
</defs>
</svg>
