<svg width="36" height="36" viewBox="0 0 36 36" fill="none" xmlns="http://www.w3.org/2000/svg">
<path d="M23.6924 28.755C23.5359 28.9117 23.35 29.0361 23.1454 29.1209C22.9408 29.2058 22.7214 29.2495 22.4999 29.2495C22.2784 29.2495 22.0591 29.2058 21.8545 29.1209C21.6498 29.0361 21.464 28.9117 21.3074 28.755L11.7449 19.1925C11.5882 19.036 11.4638 18.8501 11.379 18.6455C11.2942 18.4409 11.2505 18.2215 11.2505 18C11.2505 17.7785 11.2942 17.5592 11.379 17.3545C11.4638 17.1499 11.5882 16.964 11.7449 16.8075L21.3074 7.245C21.464 7.0884 21.6499 6.96418 21.8546 6.87943C22.0592 6.79468 22.2785 6.75105 22.4999 6.75105C22.7214 6.75105 22.9407 6.79468 23.1453 6.87943C23.3499 6.96418 23.5358 7.0884 23.6924 7.245C23.849 7.4016 23.9733 7.58752 24.058 7.79213C24.1428 7.99674 24.1864 8.21604 24.1864 8.4375C24.1864 8.65897 24.1428 8.87827 24.058 9.08288C23.9733 9.28749 23.849 9.4734 23.6924 9.63L15.3247 18L23.6924 26.37C23.8492 26.5265 23.9735 26.7124 24.0584 26.917C24.1432 27.1217 24.1869 27.341 24.1869 27.5625C24.1869 27.784 24.1432 28.0034 24.0584 28.208C23.9735 28.4126 23.8492 28.5985 23.6924 28.755Z" fill="#4942E4"/>
</svg>
