<svg width="28" height="28" viewBox="0 0 28 28" fill="none" xmlns="http://www.w3.org/2000/svg">
<g clip-path="url(#clip0_36_383)">
<path d="M16.66 2.33334C17.1497 2.33347 17.627 2.48768 18.0242 2.77412C18.4214 3.06056 18.7184 3.46472 18.8732 3.92934L19.5067 5.83334H23.3333C23.6428 5.83334 23.9395 5.95626 24.1583 6.17505C24.3771 6.39384 24.5 6.69059 24.5 7.00001C24.5 7.30943 24.3771 7.60618 24.1583 7.82497C23.9395 8.04376 23.6428 8.16668 23.3333 8.16668L23.3298 8.24951L22.3183 22.4163C22.2552 23.2991 21.86 24.1251 21.2124 24.7282C20.5647 25.3312 19.7126 25.6666 18.8277 25.6667H9.17233C8.28737 25.6666 7.43529 25.3312 6.78763 24.7282C6.13996 24.1251 5.74479 23.2991 5.68167 22.4163L4.67017 8.24834C4.66806 8.22117 4.66689 8.19393 4.66667 8.16668C4.35725 8.16668 4.0605 8.04376 3.84171 7.82497C3.62292 7.60618 3.5 7.30943 3.5 7.00001C3.5 6.69059 3.62292 6.39384 3.84171 6.17505C4.0605 5.95626 4.35725 5.83334 4.66667 5.83334H8.49333L9.12683 3.92934C9.28165 3.46453 9.57884 3.06024 9.97628 2.77378C10.3737 2.48732 10.8512 2.33323 11.3412 2.33334H16.66ZM20.9965 8.16668H7.0035L8.00917 22.2495C8.03011 22.5437 8.16174 22.8191 8.37755 23.0202C8.59337 23.2213 8.87735 23.3332 9.17233 23.3333H18.8277C19.1227 23.3332 19.4066 23.2213 19.6224 23.0202C19.8383 22.8191 19.9699 22.5437 19.9908 22.2495L20.9965 8.16668ZM11.6667 11.6667C11.9524 11.6667 12.2282 11.7716 12.4418 11.9615C12.6553 12.1514 12.7917 12.4131 12.8252 12.6968L12.8333 12.8333V18.6667C12.833 18.964 12.7191 19.25 12.515 19.4663C12.3109 19.6825 12.0319 19.8126 11.735 19.83C11.4382 19.8475 11.1459 19.7509 10.9179 19.56C10.6898 19.3692 10.5433 19.0985 10.5082 18.8032L10.5 18.6667V12.8333C10.5 12.5239 10.6229 12.2272 10.8417 12.0084C11.0605 11.7896 11.3572 11.6667 11.6667 11.6667ZM16.3333 11.6667C16.6428 11.6667 16.9395 11.7896 17.1583 12.0084C17.3771 12.2272 17.5 12.5239 17.5 12.8333V18.6667C17.5 18.9761 17.3771 19.2728 17.1583 19.4916C16.9395 19.7104 16.6428 19.8333 16.3333 19.8333C16.0239 19.8333 15.7272 19.7104 15.5084 19.4916C15.2896 19.2728 15.1667 18.9761 15.1667 18.6667V12.8333C15.1667 12.5239 15.2896 12.2272 15.5084 12.0084C15.7272 11.7896 16.0239 11.6667 16.3333 11.6667ZM16.66 4.66668H11.34L10.9515 5.83334H17.0485L16.66 4.66668Z" fill="#4942E4"/>
</g>
<defs>
<clipPath id="clip0_36_383">
<rect width="28" height="28" fill="white"/>
</clipPath>
</defs>
</svg>
